<?xml version="1.0" standalone="no"?>
<!DOCTYPE svg PUBLIC "-//W3C//DTD SVG 20010904//EN"
 "http://www.w3.org/TR/2001/REC-SVG-20010904/DTD/svg10.dtd">
<svg version="1.0" xmlns="http://www.w3.org/2000/svg"
 width="3072.000000pt" height="3072.000000pt" viewBox="0 0 3072.000000 3072.000000"
 preserveAspectRatio="xMidYMid meet">
<metadata>
Created by potrace 1.14, written by Peter Selinger 2001-2017
</metadata>
<g transform="translate(0.000000,3072.000000) scale(0.100000,-0.100000)"
fill="#000000" stroke="none">
<path d="M15200 30345 c-217 -44 -429 -189 -584 -400 -161 -217 -257 -475
-293 -780 -14 -122 -7 -407 13 -500 2 -11 6 -32 8 -46 18 -115 96 -334 164
-464 30 -57 256 -408 333 -517 10 -15 19 -30 19 -34 0 -4 6 -15 14 -23 27 -30
105 -197 121 -262 33 -124 4 -266 -67 -331 -35 -32 -114 -71 -163 -82 -90 -19
-140 -26 -235 -31 -41 -2 -81 -4 -87 -4 -10 -1 -13 -93 -13 -425 0 -234 -3
-427 -7 -429 -5 -3 -46 -8 -93 -11 -47 -4 -98 -8 -115 -10 -16 -2 -57 -7 -90
-10 -102 -11 -124 -14 -310 -41 -182 -26 -232 -35 -475 -80 -351 -67 -746
-164 -1095 -269 -221 -68 -670 -222 -770 -266 -11 -5 -97 -40 -190 -78 -381
-156 -821 -369 -1165 -565 -193 -109 -342 -199 -509 -306 -371 -236 -815 -559
-1066 -777 l-61 -52 -303 304 -304 303 -71 -66 c-229 -212 -386 -255 -532
-144 -135 101 -181 221 -283 731 -57 281 -90 395 -161 545 -216 461 -645 824
-1116 945 -344 89 -649 42 -882 -135 -408 -311 -434 -955 -61 -1516 32 -47 64
-92 71 -100 7 -8 30 -35 51 -62 129 -160 328 -324 519 -426 78 -41 254 -117
293 -126 6 -1 30 -7 55 -14 25 -7 56 -15 70 -18 14 -2 41 -8 60 -13 19 -5 50
-12 69 -15 31 -5 311 -61 351 -70 207 -45 339 -103 420 -184 133 -133 134
-266 3 -448 -31 -43 -80 -103 -109 -133 -30 -30 -54 -60 -54 -65 0 -6 133
-143 295 -305 162 -162 295 -299 295 -303 0 -7 -71 -98 -90 -117 -8 -7 -146
-183 -222 -280 -151 -196 -405 -562 -534 -768 -21 -34 -53 -85 -70 -111 -43
-67 -217 -369 -266 -461 -22 -41 -51 -93 -63 -115 -31 -54 -215 -422 -255
-510 -18 -38 -59 -131 -91 -205 -33 -74 -64 -144 -69 -155 -25 -53 -155 -390
-213 -550 -148 -410 -303 -958 -387 -1360 -44 -212 -69 -339 -75 -390 -2 -11
-12 -74 -23 -140 -12 -66 -24 -142 -27 -170 -4 -27 -8 -61 -11 -75 -2 -14 -6
-50 -10 -80 -3 -30 -8 -63 -9 -72 -2 -9 -7 -48 -10 -85 -4 -37 -8 -79 -11 -93
-2 -14 -6 -59 -9 -100 -3 -41 -8 -83 -11 -92 -5 -17 -34 -18 -430 -18 -332 0
-424 -3 -425 -12 0 -7 -3 -51 -5 -98 -9 -187 -50 -324 -115 -389 -58 -57 -110
-76 -219 -76 -152 0 -246 45 -614 289 -262 174 -372 236 -513 290 -331 128
-722 148 -1085 55 -378 -96 -709 -336 -847 -616 -17 -34 -43 -96 -57 -139 -24
-71 -27 -94 -28 -229 0 -163 8 -207 66 -335 171 -380 607 -652 1133 -707 146
-15 387 -7 513 17 267 50 450 133 772 348 405 269 515 322 670 322 95 0 192
-46 238 -113 24 -36 58 -125 66 -173 13 -80 18 -126 21 -199 2 -44 4 -83 4
-87 1 -5 194 -8 430 -8 403 0 430 -1 429 -17 -1 -16 9 -129 17 -193 1 -14 6
-54 10 -90 3 -36 8 -76 10 -90 2 -14 9 -63 15 -110 6 -47 13 -96 15 -110 2
-14 9 -61 15 -105 7 -44 14 -87 15 -96 2 -9 6 -32 9 -50 3 -19 17 -95 30 -169
27 -142 29 -155 46 -236 6 -28 13 -63 16 -79 3 -16 7 -32 9 -36 3 -4 7 -23 11
-43 14 -88 135 -550 194 -741 17 -55 33 -107 35 -115 8 -33 96 -294 143 -425
67 -186 202 -521 292 -725 111 -249 379 -780 454 -899 14 -22 26 -43 26 -45 0
-5 158 -270 216 -363 102 -162 146 -229 238 -363 55 -80 132 -188 170 -242 39
-53 78 -106 86 -118 8 -12 20 -28 25 -34 6 -6 33 -40 60 -76 64 -85 243 -308
272 -340 13 -14 23 -29 23 -35 0 -5 -135 -145 -300 -309 l-299 -299 71 -76
c176 -188 235 -347 176 -471 -68 -141 -241 -234 -552 -296 -11 -2 -90 -18
-175 -35 -86 -17 -167 -33 -181 -35 -170 -29 -410 -122 -575 -224 -270 -166
-516 -434 -657 -715 -185 -367 -213 -740 -78 -1032 46 -99 82 -153 152 -225
161 -168 380 -258 639 -261 57 -1 200 11 221 18 7 2 29 6 49 9 20 3 47 10 60
15 13 5 29 9 34 10 33 3 154 49 242 91 429 204 782 602 921 1040 21 66 47 165
56 210 2 14 16 86 31 160 15 74 29 146 31 160 14 73 56 237 78 299 68 194 186
304 340 315 43 4 151 -41 226 -93 49 -34 161 -131 184 -159 l19 -24 301 301
c166 166 306 301 311 301 6 0 39 -25 75 -56 59 -50 246 -198 375 -296 28 -21
55 -41 60 -46 9 -7 191 -137 245 -175 180 -126 494 -329 678 -438 406 -241
1006 -537 1437 -709 72 -28 139 -55 150 -60 11 -5 72 -27 135 -50 63 -23 126
-46 140 -52 89 -36 709 -229 780 -243 10 -2 53 -13 95 -25 42 -12 84 -23 93
-25 9 -2 86 -20 170 -39 83 -20 167 -38 185 -41 17 -3 46 -10 62 -14 27 -8 56
-14 135 -27 14 -2 45 -9 70 -14 62 -13 208 -39 250 -44 19 -2 62 -9 95 -15
100 -18 140 -23 500 -66 68 -8 179 -18 198 -17 16 1 17 -26 17 -429 0 -402 1
-429 18 -430 188 -8 241 -14 315 -34 103 -27 177 -78 212 -144 22 -44 27 -63
32 -148 10 -142 -60 -291 -308 -655 -168 -247 -243 -385 -299 -555 -61 -183
-84 -333 -84 -543 0 -177 8 -261 41 -410 114 -521 466 -924 862 -987 61 -10
234 -10 291 0 187 33 399 166 551 347 177 210 299 513 336 835 9 79 9 323 1
407 -23 217 -103 460 -214 652 -39 67 -146 232 -225 346 -9 14 -34 52 -54 85
-21 33 -46 72 -57 87 -26 39 -83 153 -110 223 -17 46 -23 80 -22 145 0 47 3
97 6 111 35 146 188 224 463 234 39 2 78 4 88 4 16 1 17 28 17 425 0 234 3
427 8 429 4 3 43 8 87 11 44 4 94 8 110 10 17 2 57 7 90 11 33 3 74 8 90 10
17 2 84 11 150 20 111 15 332 49 381 59 12 2 39 7 60 10 78 12 303 59 474 98
96 22 184 42 195 44 11 2 70 18 130 34 61 17 121 33 135 36 141 29 690 210
1003 331 230 88 707 293 797 342 9 5 107 55 219 112 231 118 260 133 391 208
52 30 104 59 115 65 83 45 532 327 642 403 68 47 316 224 348 248 57 43 346
266 370 286 11 9 50 42 86 72 l66 56 299 -300 c164 -164 302 -299 307 -299 5
0 21 13 37 28 94 95 216 182 296 212 112 41 206 22 301 -65 114 -103 155 -216
253 -705 58 -288 104 -439 183 -592 94 -180 181 -301 321 -441 258 -259 599
-443 896 -483 25 -3 48 -8 52 -10 11 -7 217 -6 278 1 140 16 289 72 405 153
79 55 225 216 225 248 0 4 6 15 13 23 20 23 64 136 81 206 63 263 24 555 -114
843 -134 280 -356 537 -619 716 -148 101 -409 214 -566 246 -585 117 -706 149
-816 216 -68 41 -128 106 -159 170 -59 128 3 283 196 485 l53 56 -299 299
c-165 164 -300 302 -300 307 0 4 55 76 123 160 318 394 586 776 840 1199 74
123 149 250 167 283 18 33 53 96 77 140 63 116 263 514 312 625 24 52 51 113
61 135 85 184 293 711 326 825 2 8 25 76 50 150 105 311 251 844 298 1090 2
14 16 81 31 150 14 69 27 136 30 150 2 14 11 66 20 115 9 50 18 106 21 125 3
19 9 60 14 90 12 67 19 119 26 185 2 28 7 57 9 65 2 8 7 42 10 75 4 33 8 71
10 85 2 14 7 54 10 90 4 36 9 97 13 135 l7 70 428 3 c235 1 427 6 427 10 1 4
3 47 5 97 4 81 10 135 22 190 2 11 6 31 9 45 9 46 51 126 82 158 97 99 271
109 452 24 56 -27 187 -100 205 -115 6 -4 60 -40 120 -80 61 -39 116 -77 123
-84 6 -6 21 -15 32 -18 11 -3 20 -11 20 -16 0 -5 4 -9 9 -9 5 0 35 -18 67 -39
275 -183 617 -281 959 -276 120 2 263 13 275 20 3 2 26 6 50 10 48 7 170 38
235 61 101 34 128 46 217 92 194 100 316 201 433 357 105 141 162 294 171 459
11 208 -43 380 -177 561 -325 437 -1041 640 -1674 474 -210 -55 -351 -126
-685 -348 -250 -166 -423 -260 -519 -281 -68 -16 -177 -7 -235 18 -126 56
-187 211 -190 479 l-1 73 -431 0 c-338 0 -431 3 -431 13 0 19 -14 168 -18 202
-2 17 -7 57 -10 90 -9 85 -18 158 -30 235 -2 14 -9 61 -15 105 -6 44 -20 130
-30 190 -11 61 -22 126 -25 145 -3 19 -12 69 -20 110 -9 41 -17 86 -20 99 -92
482 -274 1123 -458 1611 -66 174 -123 320 -147 375 -10 22 -45 103 -78 180
-102 236 -305 654 -396 813 -20 35 -36 66 -36 68 0 2 -18 33 -40 69 -22 36
-40 67 -40 70 0 6 -205 349 -258 430 -73 112 -244 368 -264 395 -11 14 -66 90
-123 168 -56 79 -116 160 -131 180 -115 146 -272 341 -291 362 -13 14 -23 29
-23 35 0 6 135 145 299 309 l300 300 -67 70 c-130 138 -207 280 -204 381 1 62
36 131 99 194 97 97 269 162 573 217 29 6 318 64 340 69 192 45 383 130 556
247 151 103 273 215 396 365 59 72 188 268 188 286 0 5 9 22 21 38 11 16 17
29 13 29 -3 0 -1 6 5 13 22 27 93 235 107 312 2 17 7 37 9 45 22 78 22 309 0
415 -73 353 -298 584 -649 666 -94 22 -266 29 -361 15 -27 -4 -66 -9 -85 -12
-53 -8 -203 -52 -272 -81 -335 -136 -633 -386 -840 -704 -103 -159 -205 -422
-234 -605 -3 -21 -7 -41 -9 -44 -2 -3 -6 -25 -10 -50 -4 -25 -8 -47 -10 -50
-2 -4 -7 -29 -11 -56 -3 -27 -8 -52 -10 -55 -2 -3 -6 -21 -9 -40 -14 -82 -50
-221 -77 -299 -70 -198 -179 -307 -320 -318 -105 -8 -231 57 -379 196 l-76 71
-304 -304 c-167 -167 -306 -301 -309 -297 -3 4 -26 24 -52 45 -26 21 -53 43
-60 50 -20 19 -350 274 -460 355 -326 240 -804 544 -1146 728 -37 20 -86 47
-110 61 -50 29 -519 263 -526 263 -3 0 -42 17 -88 39 -610 285 -1424 557
-2113 706 -66 14 -138 30 -160 35 -22 5 -56 12 -75 15 -19 3 -82 15 -140 25
-203 38 -405 69 -555 86 -27 3 -57 7 -65 9 -8 2 -44 7 -80 10 -36 3 -76 8 -90
10 -14 2 -61 7 -105 11 -44 4 -87 8 -95 9 -13 2 -16 60 -20 430 l-5 428 -65 2
c-282 9 -424 65 -483 192 -18 39 -22 66 -22 143 0 160 36 234 307 644 203 307
293 490 333 676 2 8 11 48 19 88 23 108 30 191 30 347 -1 172 -8 247 -41 395
-99 456 -376 821 -718 948 -137 51 -306 65 -445 37z m-306 -9424 c1 -1536 -2
-2797 -5 -2803 -3 -5 -57 -20 -119 -33 -332 -71 -648 -203 -938 -391 -45 -30
-85 -54 -87 -54 -3 0 -896 891 -1986 1979 l-1980 1979 84 74 c952 831 2085
1437 3312 1770 61 16 117 31 125 33 8 2 44 11 80 20 36 9 74 19 85 21 11 2 63
13 115 24 52 12 106 23 120 26 14 2 48 9 76 15 28 5 64 12 80 15 16 2 52 9 79
14 28 5 68 12 90 15 22 3 51 8 65 10 31 6 253 35 300 40 115 11 169 17 199 21
18 2 74 7 125 10 50 3 92 7 93 8 2 1 22 2 45 2 l42 -1 0 -2794z m1121 2784
c50 -3 106 -8 125 -10 19 -3 62 -7 95 -10 117 -10 313 -37 490 -66 208 -34
212 -35 245 -43 14 -3 37 -8 53 -10 15 -3 35 -7 45 -10 9 -3 28 -7 42 -10 58
-10 272 -60 355 -83 50 -13 115 -31 145 -39 332 -90 786 -250 1086 -385 200
-89 274 -124 444 -210 107 -54 206 -105 220 -113 14 -8 102 -59 195 -112 317
-182 685 -430 965 -651 32 -25 349 -290 384 -321 l37 -32 -1981 -1980 c-1089
-1089 -1983 -1980 -1986 -1980 -3 0 -43 24 -87 54 -278 184 -626 328 -957 396
-51 10 -95 22 -98 25 -6 6 -10 5572 -4 5592 3 9 19 12 51 9 25 -3 87 -7 136
-11z m-4912 -4746 c1955 -1955 1981 -1981 1967 -2005 -8 -13 -47 -74 -85 -136
-117 -186 -197 -356 -269 -573 -34 -100 -85 -296 -100 -385 l-6 -35 -2787 2
c-1534 1 -2796 2 -2805 2 -14 1 -16 9 -13 49 2 26 6 83 10 128 3 44 8 96 10
115 2 19 6 66 10 104 5 64 19 184 30 260 7 55 44 290 49 320 30 163 50 264 81
400 20 88 38 167 40 175 6 28 56 215 76 285 73 252 257 783 280 809 5 6 9 16
9 23 0 7 12 38 26 70 23 52 32 73 64 148 5 11 20 46 34 77 15 32 27 61 27 65
2 17 271 537 343 663 199 344 430 687 670 995 39 50 75 95 81 102 5 6 69 81
140 167 72 85 132 155 134 155 2 1 895 -890 1984 -1980z m10545 1927 c24 -29
53 -63 65 -77 13 -13 54 -62 92 -109 38 -47 72 -87 75 -90 3 -3 44 -54 91
-115 531 -684 956 -1450 1254 -2265 111 -303 247 -763 300 -1015 55 -265 67
-327 96 -505 11 -69 22 -136 24 -150 8 -50 27 -196 30 -230 2 -19 6 -57 9 -85
14 -122 28 -291 30 -369 l1 -49 -2799 1 c-2352 0 -2800 2 -2807 13 -5 8 -9 23
-9 34 0 11 -16 81 -35 155 -19 74 -37 146 -40 159 -11 47 -98 268 -144 366
-52 111 -107 208 -188 332 -29 45 -53 85 -53 89 0 8 3952 3964 3960 3963 3 0
24 -24 48 -53z m-9028 -6046 c50 -253 146 -538 253 -745 39 -75 161 -279 187
-312 11 -14 20 -30 20 -35 0 -5 -891 -899 -1979 -1988 l-1980 -1979 -58 66
c-32 36 -63 71 -68 77 -34 35 -277 342 -362 456 -129 174 -287 406 -400 590
-97 157 -106 173 -226 390 -518 940 -865 2057 -972 3130 -16 157 -25 261 -29
335 l-5 70 2805 0 2804 0 10 -55z m11095 10 c-2 -25 -6 -88 -10 -140 -3 -52
-8 -111 -10 -130 -2 -19 -7 -59 -10 -87 -3 -29 -8 -77 -11 -105 -6 -62 -43
-332 -50 -368 -2 -14 -13 -74 -24 -135 -27 -151 -27 -151 -56 -283 -127 -590
-305 -1131 -551 -1682 -117 -261 -434 -859 -489 -921 -8 -8 -14 -19 -14 -23 0
-10 -246 -380 -317 -478 -26 -37 -70 -97 -97 -135 -93 -127 -283 -362 -414
-510 l-63 -72 -1980 1980 c-1088 1088 -1979 1982 -1979 1985 0 4 24 43 53 88
166 251 291 534 364 821 14 55 27 109 29 120 2 11 8 43 14 70 l10 50 2805 0
2804 0 -4 -45z m-9890 -1817 c136 -91 333 -196 480 -255 53 -22 240 -87 265
-93 8 -2 60 -15 115 -29 55 -14 125 -30 155 -36 l55 -10 -2 -2798 c0 -1538 -2
-2800 -2 -2803 -1 -7 -41 -5 -171 6 -36 3 -94 8 -130 11 -36 2 -81 7 -100 9
-19 3 -60 7 -90 10 -30 3 -68 7 -85 9 -16 3 -82 12 -145 21 -109 15 -256 39
-310 50 -14 3 -41 8 -60 11 -19 3 -42 7 -50 9 -8 2 -28 7 -45 10 -16 2 -39 7
-50 9 -11 3 -54 12 -95 21 -842 180 -1732 533 -2500 993 -265 158 -755 498
-920 639 -14 11 -68 56 -120 99 -52 43 -128 107 -168 142 l-72 65 1977 1978
c1088 1088 1983 1978 1988 1979 6 0 42 -21 80 -47z m5137 -1932 l1980 -1980
-24 -20 c-13 -11 -34 -30 -48 -42 -526 -463 -1173 -894 -1822 -1214 -147 -73
-557 -255 -573 -255 -3 0 -25 -8 -48 -19 -23 -10 -76 -30 -117 -45 -41 -15
-86 -32 -100 -38 -14 -6 -104 -37 -202 -69 -281 -93 -622 -187 -878 -240 -52
-11 -103 -22 -113 -24 -133 -29 -470 -83 -612 -100 -27 -3 -66 -7 -85 -10 -60
-8 -231 -24 -325 -30 -49 -4 -107 -8 -127 -10 -21 -1 -38 0 -39 4 0 3 -2 1265
-2 2804 l-2 2797 35 6 c29 5 97 21 285 68 210 52 635 254 794 377 13 11 28 19
34 19 5 0 901 -891 1989 -1979z"/>
</g>
</svg>
